<svg xmlns="http://www.w3.org/2000/svg" xmlns:xlink="http://www.w3.org/1999/xlink" id="Layer_1" x="0px" y="0px" viewBox="0 0 180 100" style="enable-background:new 0 0 180 100;" xml:space="preserve"><style type="text/css">	.st0{fill:#F38020;}	.st1{fill:none;stroke:#575756;stroke-width:0.1255;stroke-miterlimit:10;}	.st2{fill:#FFFFFF;}	.st3{fill:none;stroke:#575756;stroke-width:0.1811;stroke-miterlimit:10;}	.st4{fill:#58595B;}</style><g>	<g>		<g>			<path class="st0" d="M60.83,70.88c1.99,0,3.62,0.59,4.89,1.78c1.27,1.19,1.9,2.73,1.9,4.63c0,1.91-0.63,3.46-1.9,4.63    c-1.27,1.18-2.9,1.77-4.89,1.77H54.7c-1.96,0-3.58-0.59-4.87-1.78c-1.29-1.19-1.93-2.73-1.93-4.63c0-1.9,0.63-3.44,1.9-4.63    c1.27-1.19,2.9-1.78,4.89-1.78H60.83z M60.83,80.06c0.83,0,1.5-0.26,2.03-0.79c0.53-0.52,0.8-1.19,0.8-1.99    c0-0.79-0.27-1.45-0.8-1.98c-0.53-0.53-1.21-0.8-2.03-0.8H54.7c-0.83,0-1.5,0.26-2.03,0.8c-0.53,0.53-0.8,1.19-0.8,1.98    c0,0.8,0.27,1.47,0.8,1.99c0.53,0.53,1.21,0.79,2.03,0.79H60.83z"></path>			<path class="st0" d="M40.38,70.88c1.99,0,3.62,0.59,4.89,1.78c1.27,1.19,1.9,2.73,1.9,4.63c0,1.91-0.63,3.46-1.9,4.63    c-1.27,1.18-2.9,1.77-4.89,1.77h-6.12c-1.96,0-3.58-0.59-4.87-1.78c-1.29-1.19-1.93-2.73-1.93-4.63c0-1.9,0.63-3.44,1.9-4.63    c1.27-1.19,2.9-1.78,4.89-1.78H40.38z M40.38,80.06c0.83,0,1.5-0.26,2.03-0.79c0.53-0.52,0.8-1.19,0.8-1.99    c0-0.79-0.27-1.45-0.8-1.98c-0.53-0.53-1.21-0.8-2.03-0.8h-6.12c-0.83,0-1.5,0.26-2.03,0.8c-0.53,0.53-0.8,1.19-0.8,1.98    c0,0.8,0.27,1.47,0.8,1.99c0.53,0.53,1.21,0.79,2.03,0.79H40.38z"></path>		</g>		<g>			<path class="st0" d="M22.29,70.88h3.93v12.81h-3.93v-7.85l-6.82,5.42L8.47,75.8v7.89H4.54V70.88h3.93l6.99,5.32L22.29,70.88z"></path>			<path class="st0" d="M85.18,70.88h3.95v12.81h-3.95L72.9,75.67v8.01h-3.95V70.88h3.95l12.28,8.03V70.88z"></path>		</g>		<g>			<path class="st0" d="M94.8,83.69h-3.93V70.88h3.93v7.85l6.82-5.42l6.99,5.45v-7.89h3.93v12.81h-3.93l-6.99-5.32L94.8,83.69z"></path>			<path class="st0" d="M131.12,83.69l-0.53-2.03h-12.2l-0.53,2.03h-4.06l3.38-12.81h14.64l3.39,12.81H131.12z M119.3,78.09h10.36    l-0.95-3.68h-8.45L119.3,78.09z"></path>			<path class="st0" d="M140.61,80.16h13.34v3.53h-17.36V70.88h4.02V80.16z"></path>			<path class="st0" d="M175.46,70.88l-3.04,6.4l3.04,6.4h-4.36l-2.23-4.76h-9.57v4.76h-4.04V70.88h4.04v4.54h9.68l2.12-4.54H175.46    z"></path>		</g>	</g>	<g>		<g>		</g>		<polygon class="st4" points="107.32,1.03 90,9.48 72.68,1.03 72.68,1.03 72.68,17.93 90,26.38 107.32,17.93 107.32,1.03   "></polygon>		<polygon class="st4" points="90,26.38 72.68,34.83 72.68,51.74 90,43.29 107.32,51.74 107.32,34.83   "></polygon>		<polygon class="st0" points="107.32,1.03 107.32,17.93 107.32,34.83 107.32,51.74 124.63,43.29 124.63,9.48   "></polygon>		<polygon class="st0" points="55.37,9.48 55.37,43.29 72.68,51.74 72.68,34.83 72.68,17.93 72.68,1.03   "></polygon>	</g>	<g>		<g>			<path class="st4" d="M32.89,99.05c-0.44,0-0.85-0.06-1.25-0.19c-0.4-0.12-0.71-0.29-0.95-0.48l0.36-0.8    c0.22,0.18,0.5,0.32,0.83,0.44c0.33,0.12,0.67,0.18,1.01,0.18c0.29,0,0.53-0.03,0.71-0.1c0.18-0.06,0.31-0.15,0.4-0.26    c0.08-0.11,0.13-0.23,0.13-0.37c0-0.17-0.06-0.31-0.18-0.41c-0.12-0.1-0.28-0.19-0.47-0.25s-0.41-0.12-0.65-0.17    c-0.24-0.05-0.47-0.11-0.71-0.19c-0.24-0.07-0.45-0.17-0.65-0.28c-0.2-0.11-0.35-0.27-0.47-0.46c-0.12-0.19-0.18-0.44-0.18-0.73    c0-0.3,0.08-0.58,0.24-0.83c0.16-0.25,0.41-0.45,0.74-0.61s0.75-0.23,1.26-0.23c0.33,0,0.67,0.04,1,0.13    c0.33,0.08,0.62,0.21,0.86,0.37l-0.33,0.8c-0.25-0.15-0.51-0.26-0.77-0.33s-0.52-0.11-0.76-0.11c-0.28,0-0.51,0.03-0.69,0.1    s-0.31,0.16-0.39,0.27s-0.12,0.24-0.12,0.38c0,0.17,0.06,0.31,0.18,0.41c0.12,0.1,0.28,0.19,0.47,0.24    c0.19,0.06,0.41,0.11,0.65,0.17c0.24,0.05,0.48,0.12,0.71,0.19c0.23,0.07,0.45,0.17,0.65,0.28c0.2,0.11,0.35,0.27,0.47,0.45    c0.12,0.19,0.18,0.43,0.18,0.72c0,0.3-0.08,0.57-0.24,0.82s-0.41,0.45-0.75,0.61C33.82,98.97,33.4,99.05,32.89,99.05z"></path>			<path class="st4" d="M37.3,98.97v-4.7h-1.85v-0.88h4.73v0.88h-1.85v4.7H37.3z"></path>			<path class="st4" d="M40.97,98.97v-5.58h2.29c0.49,0,0.92,0.08,1.27,0.24c0.35,0.16,0.63,0.38,0.82,0.68    c0.19,0.3,0.29,0.65,0.29,1.07c0,0.41-0.1,0.76-0.29,1.05c-0.19,0.29-0.46,0.52-0.82,0.68c-0.35,0.16-0.78,0.24-1.27,0.24h-1.71    l0.45-0.46v2.09H40.97z M42.01,96.99l-0.45-0.5h1.67c0.46,0,0.8-0.1,1.03-0.29c0.23-0.2,0.35-0.47,0.35-0.82    s-0.12-0.62-0.35-0.82c-0.23-0.19-0.57-0.29-1.03-0.29h-1.67l0.45-0.51V96.99z M44.62,98.97l-1.41-2.02h1.11l1.42,2.02H44.62z"></path>			<path class="st4" d="M49.41,99.05c-0.43,0-0.83-0.07-1.2-0.21c-0.37-0.14-0.69-0.35-0.96-0.61s-0.48-0.56-0.63-0.91    c-0.15-0.35-0.22-0.73-0.22-1.14c0-0.41,0.07-0.8,0.22-1.14c0.15-0.35,0.36-0.65,0.63-0.91s0.59-0.46,0.96-0.6    c0.37-0.14,0.77-0.22,1.2-0.22c0.43,0,0.83,0.07,1.2,0.21c0.37,0.14,0.68,0.34,0.95,0.6c0.27,0.26,0.48,0.56,0.63,0.91    c0.15,0.35,0.22,0.73,0.22,1.15c0,0.41-0.07,0.8-0.22,1.14c-0.15,0.35-0.36,0.65-0.63,0.91c-0.27,0.26-0.59,0.46-0.95,0.6    C50.24,98.98,49.84,99.05,49.41,99.05z M49.41,98.14c0.28,0,0.54-0.05,0.78-0.14s0.44-0.23,0.62-0.41s0.31-0.38,0.41-0.62    c0.1-0.24,0.15-0.5,0.15-0.79c0-0.29-0.05-0.55-0.14-0.79c-0.1-0.24-0.23-0.45-0.41-0.62c-0.18-0.18-0.39-0.31-0.62-0.41    s-0.5-0.14-0.78-0.14c-0.28,0-0.54,0.05-0.79,0.14s-0.45,0.23-0.63,0.41c-0.18,0.18-0.31,0.39-0.41,0.62    c-0.1,0.24-0.15,0.5-0.15,0.78c0,0.28,0.05,0.54,0.15,0.78c0.1,0.24,0.24,0.45,0.41,0.63c0.18,0.18,0.38,0.31,0.63,0.41    S49.13,98.14,49.41,98.14z"></path>			<path class="st4" d="M53.5,98.97v-5.58h0.85l3.5,4.3h-0.42v-4.3h1.02v5.58H57.6l-3.49-4.3h0.42v4.3H53.5z"></path>			<path class="st4" d="M62.56,99.05c-0.44,0-0.84-0.07-1.2-0.21s-0.68-0.34-0.95-0.6s-0.48-0.56-0.63-0.91    c-0.15-0.35-0.22-0.73-0.22-1.15c0-0.42,0.07-0.8,0.22-1.15c0.15-0.35,0.36-0.65,0.63-0.91c0.27-0.26,0.59-0.46,0.96-0.6    c0.36-0.14,0.77-0.21,1.21-0.21c0.47,0,0.89,0.08,1.27,0.23c0.38,0.15,0.7,0.38,0.96,0.68l-0.65,0.64    c-0.22-0.22-0.45-0.38-0.71-0.48c-0.25-0.1-0.53-0.16-0.83-0.16c-0.3,0-0.57,0.05-0.82,0.14s-0.46,0.23-0.64,0.41    c-0.18,0.18-0.32,0.38-0.42,0.62c-0.1,0.24-0.15,0.5-0.15,0.79c0,0.28,0.05,0.54,0.15,0.79c0.1,0.24,0.24,0.45,0.42,0.63    c0.18,0.18,0.39,0.31,0.64,0.41s0.52,0.14,0.81,0.14c0.28,0,0.54-0.04,0.8-0.13c0.26-0.09,0.5-0.23,0.74-0.44l0.58,0.77    c-0.29,0.23-0.62,0.41-1,0.53C63.35,98.99,62.96,99.05,62.56,99.05z M63.77,98.2v-2.08h0.97v2.22L63.77,98.2z"></path>			<path class="st4" d="M70.04,99.05c-0.44,0-0.85-0.06-1.25-0.19c-0.4-0.12-0.71-0.29-0.95-0.48l0.36-0.8    c0.22,0.18,0.5,0.32,0.83,0.44c0.33,0.12,0.67,0.18,1.01,0.18c0.29,0,0.53-0.03,0.71-0.1c0.18-0.06,0.31-0.15,0.4-0.26    c0.08-0.11,0.13-0.23,0.13-0.37c0-0.17-0.06-0.31-0.18-0.41c-0.12-0.1-0.28-0.19-0.47-0.25s-0.41-0.12-0.65-0.17    c-0.24-0.05-0.47-0.11-0.71-0.19c-0.24-0.07-0.45-0.17-0.65-0.28c-0.2-0.11-0.35-0.27-0.47-0.46c-0.12-0.19-0.18-0.44-0.18-0.73    c0-0.3,0.08-0.58,0.24-0.83c0.16-0.25,0.41-0.45,0.74-0.61s0.75-0.23,1.26-0.23c0.33,0,0.67,0.04,1,0.13    c0.33,0.08,0.62,0.21,0.86,0.37l-0.33,0.8c-0.25-0.15-0.51-0.26-0.77-0.33s-0.52-0.11-0.76-0.11c-0.28,0-0.51,0.03-0.69,0.1    s-0.31,0.16-0.39,0.27s-0.12,0.24-0.12,0.38c0,0.17,0.06,0.31,0.18,0.41c0.12,0.1,0.28,0.19,0.47,0.24    c0.19,0.06,0.41,0.11,0.65,0.17c0.24,0.05,0.48,0.12,0.71,0.19c0.23,0.07,0.45,0.17,0.65,0.28c0.2,0.11,0.35,0.27,0.47,0.45    c0.12,0.19,0.18,0.43,0.18,0.72c0,0.3-0.08,0.57-0.24,0.82s-0.41,0.45-0.75,0.61C70.97,98.97,70.55,99.05,70.04,99.05z"></path>			<path class="st4" d="M74.45,98.97v-4.7H72.6v-0.88h4.73v0.88h-1.85v4.7H74.45z"></path>			<path class="st4" d="M79.16,98.09h3.15v0.88h-4.18v-5.58h4.07v0.88h-3.04V98.09z M79.07,95.71h2.77v0.85h-2.77V95.71z"></path>			<path class="st4" d="M84.49,98.09h3.15v0.88h-4.18v-5.58h4.07v0.88h-3.04V98.09z M84.41,95.71h2.77v0.85h-2.77V95.71z"></path>			<path class="st4" d="M88.8,98.97v-5.58h1.04v4.7h2.92v0.88H88.8z"></path>			<path class="st4" d="M97.5,99.05c-0.44,0-0.85-0.06-1.25-0.19c-0.4-0.12-0.71-0.29-0.95-0.48l0.36-0.8    c0.22,0.18,0.5,0.32,0.83,0.44c0.33,0.12,0.67,0.18,1.01,0.18c0.29,0,0.53-0.03,0.71-0.1c0.18-0.06,0.31-0.15,0.4-0.26    c0.08-0.11,0.13-0.23,0.13-0.37c0-0.17-0.06-0.31-0.18-0.41c-0.12-0.1-0.28-0.19-0.47-0.25s-0.41-0.12-0.65-0.17    c-0.24-0.05-0.47-0.11-0.71-0.19c-0.24-0.07-0.45-0.17-0.65-0.28c-0.2-0.11-0.35-0.27-0.47-0.46c-0.12-0.19-0.18-0.44-0.18-0.73    c0-0.3,0.08-0.58,0.24-0.83c0.16-0.25,0.41-0.45,0.74-0.61s0.75-0.23,1.26-0.23c0.33,0,0.67,0.04,1,0.13    c0.33,0.08,0.62,0.21,0.86,0.37l-0.33,0.8c-0.25-0.15-0.51-0.26-0.77-0.33s-0.52-0.11-0.76-0.11c-0.28,0-0.51,0.03-0.69,0.1    s-0.31,0.16-0.39,0.27s-0.12,0.24-0.12,0.38c0,0.17,0.06,0.31,0.18,0.41c0.12,0.1,0.28,0.19,0.47,0.24    c0.19,0.06,0.41,0.11,0.65,0.17c0.24,0.05,0.48,0.12,0.71,0.19c0.23,0.07,0.45,0.17,0.65,0.28c0.2,0.11,0.35,0.27,0.47,0.45    c0.12,0.19,0.18,0.43,0.18,0.72c0,0.3-0.08,0.57-0.24,0.82s-0.41,0.45-0.75,0.61C98.43,98.97,98.01,99.05,97.5,99.05z"></path>			<path class="st4" d="M101.91,98.97v-4.7h-1.85v-0.88h4.73v0.88h-1.85v4.7H101.91z"></path>			<path class="st4" d="M105.58,98.97v-5.58h2.29c0.49,0,0.92,0.08,1.27,0.24c0.35,0.16,0.63,0.38,0.82,0.68    c0.19,0.3,0.29,0.65,0.29,1.07c0,0.41-0.1,0.76-0.29,1.05c-0.19,0.29-0.46,0.52-0.82,0.68c-0.35,0.16-0.78,0.24-1.27,0.24h-1.71    l0.45-0.46v2.09H105.58z M106.61,96.99l-0.45-0.5h1.67c0.46,0,0.8-0.1,1.03-0.29c0.23-0.2,0.35-0.47,0.35-0.82    s-0.12-0.62-0.35-0.82c-0.23-0.19-0.57-0.29-1.03-0.29h-1.67l0.45-0.51V96.99z M109.23,98.97l-1.41-2.02h1.11l1.42,2.02H109.23z"></path>			<path class="st4" d="M113.79,99.05c-0.76,0-1.36-0.21-1.79-0.65c-0.43-0.43-0.65-1.05-0.65-1.87v-3.14h1.04v3.11    c0,0.57,0.12,0.99,0.37,1.25c0.25,0.26,0.6,0.39,1.05,0.39c0.45,0,0.8-0.13,1.04-0.39c0.24-0.26,0.37-0.68,0.37-1.25v-3.11h1.02    v3.14c0,0.82-0.22,1.44-0.65,1.87C115.16,98.83,114.56,99.05,113.79,99.05z"></path>			<path class="st4" d="M120.27,99.05c-0.43,0-0.83-0.07-1.19-0.21s-0.68-0.34-0.94-0.6s-0.48-0.56-0.63-0.91    c-0.15-0.35-0.22-0.73-0.22-1.15c0-0.42,0.07-0.8,0.22-1.15c0.15-0.35,0.36-0.65,0.63-0.91s0.59-0.46,0.95-0.6    c0.36-0.14,0.76-0.21,1.19-0.21c0.46,0,0.87,0.08,1.25,0.24c0.38,0.16,0.7,0.39,0.96,0.7l-0.67,0.63    c-0.21-0.22-0.44-0.38-0.69-0.49c-0.25-0.11-0.52-0.16-0.8-0.16c-0.29,0-0.56,0.05-0.8,0.14c-0.24,0.1-0.45,0.23-0.63,0.41    c-0.18,0.18-0.32,0.38-0.42,0.62c-0.1,0.24-0.15,0.5-0.15,0.79c0,0.29,0.05,0.55,0.15,0.79c0.1,0.24,0.24,0.45,0.42,0.62    c0.18,0.18,0.39,0.31,0.63,0.41c0.24,0.1,0.51,0.14,0.8,0.14c0.29,0,0.55-0.05,0.8-0.16c0.25-0.11,0.48-0.27,0.69-0.5l0.67,0.63    c-0.26,0.31-0.58,0.54-0.96,0.7C121.15,98.97,120.73,99.05,120.27,99.05z"></path>			<path class="st4" d="M124.61,98.97v-4.7h-1.85v-0.88h4.73v0.88h-1.85v4.7H124.61z"></path>			<path class="st4" d="M130.67,99.05c-0.76,0-1.36-0.21-1.79-0.65c-0.43-0.43-0.65-1.05-0.65-1.87v-3.14h1.04v3.11    c0,0.57,0.12,0.99,0.37,1.25c0.25,0.26,0.6,0.39,1.05,0.39c0.45,0,0.8-0.13,1.04-0.39c0.24-0.26,0.37-0.68,0.37-1.25v-3.11h1.02    v3.14c0,0.82-0.22,1.44-0.65,1.87C132.03,98.83,131.43,99.05,130.67,99.05z"></path>			<path class="st4" d="M134.57,98.97v-5.58h2.29c0.49,0,0.92,0.08,1.27,0.24c0.35,0.16,0.63,0.38,0.82,0.68    c0.19,0.3,0.29,0.65,0.29,1.07c0,0.41-0.1,0.76-0.29,1.05c-0.19,0.29-0.46,0.52-0.82,0.68c-0.35,0.16-0.78,0.24-1.27,0.24h-1.71    l0.45-0.46v2.09H134.57z M135.6,96.99l-0.45-0.5h1.67c0.46,0,0.8-0.1,1.03-0.29c0.23-0.2,0.35-0.47,0.35-0.82    s-0.12-0.62-0.35-0.82c-0.23-0.19-0.57-0.29-1.03-0.29h-1.67l0.45-0.51V96.99z M138.22,98.97l-1.41-2.02h1.11l1.42,2.02H138.22z"></path>			<path class="st4" d="M141.43,98.09h3.15v0.88h-4.18v-5.58h4.07v0.88h-3.04V98.09z M141.35,95.71h2.77v0.85h-2.77V95.71z"></path>			<path class="st4" d="M147.46,99.05c-0.44,0-0.85-0.06-1.25-0.19c-0.4-0.12-0.71-0.29-0.95-0.48l0.36-0.8    c0.22,0.18,0.5,0.32,0.83,0.44c0.33,0.12,0.67,0.18,1.01,0.18c0.29,0,0.53-0.03,0.71-0.1c0.18-0.06,0.31-0.15,0.4-0.26    c0.08-0.11,0.13-0.23,0.13-0.37c0-0.17-0.06-0.31-0.18-0.41c-0.12-0.1-0.28-0.19-0.47-0.25s-0.41-0.12-0.65-0.17    c-0.24-0.05-0.47-0.11-0.71-0.19c-0.24-0.07-0.45-0.17-0.65-0.28c-0.2-0.11-0.35-0.27-0.47-0.46c-0.12-0.19-0.18-0.44-0.18-0.73    c0-0.3,0.08-0.58,0.24-0.83c0.16-0.25,0.41-0.45,0.74-0.61s0.75-0.23,1.26-0.23c0.33,0,0.67,0.04,1,0.13    c0.33,0.08,0.62,0.21,0.86,0.37l-0.33,0.8c-0.25-0.15-0.51-0.26-0.77-0.33s-0.52-0.11-0.76-0.11c-0.28,0-0.51,0.03-0.69,0.1    s-0.31,0.16-0.39,0.27s-0.12,0.24-0.12,0.38c0,0.17,0.06,0.31,0.18,0.41c0.12,0.1,0.28,0.19,0.47,0.24    c0.19,0.06,0.41,0.11,0.65,0.17c0.24,0.05,0.48,0.12,0.71,0.19c0.23,0.07,0.45,0.17,0.65,0.28c0.2,0.11,0.35,0.27,0.47,0.45    c0.12,0.19,0.18,0.43,0.18,0.72c0,0.3-0.08,0.57-0.24,0.82s-0.41,0.45-0.75,0.61C148.39,98.97,147.97,99.05,147.46,99.05z"></path>		</g>	</g></g></svg>